<?xml version="1.0" encoding="UTF-8"?>
<!DOCTYPE svg PUBLIC "-//W3C//DTD SVG 1.1//EN" "http://www.w3.org/Graphics/SVG/1.1/DTD/svg11.dtd">
<!-- Creator: CorelDRAW X8 -->
<svg xmlns="http://www.w3.org/2000/svg" xml:space="preserve" width="34mm" height="6mm" version="1.1" style="shape-rendering:geometricPrecision; text-rendering:geometricPrecision; image-rendering:optimizeQuality; fill-rule:evenodd; clip-rule:evenodd"
viewBox="0 0 3400 600"
 xmlns:xlink="http://www.w3.org/1999/xlink">
 <defs>
  <style type="text/css">
   <![CDATA[
    .fil1 {fill:#BF1313;fill-rule:nonzero}
    .fil0 {fill:#007DCC;fill-rule:nonzero}
   ]]>
  </style>
 </defs>
 <g id="Capa_x0020_1">
  <metadata id="CorelCorpID_0Corel-Layer"/>
  <path class="fil0" d="M178 145l-17 0 0 133 22 0c30,0 53,-5 69,-17 16,-12 24,-28 24,-50 0,-23 -8,-39 -24,-50 -15,-11 -40,-16 -74,-16zm-136 408l0 -500 129 0c39,0 71,3 94,9 23,6 44,15 62,29 18,13 33,30 43,51 10,20 15,42 15,64 0,51 -18,91 -54,120 -36,30 -85,45 -146,45 -7,0 -11,0 -15,0 -3,0 -6,-1 -9,-1l0 183 -119 0z"/>
  <path id="1" class="fil0" d="M572 53l0 275c0,44 8,77 24,99 16,22 41,33 74,33 32,0 56,-10 72,-31 17,-20 25,-50 25,-89l0 -287 107 0 0 287c0,72 -19,128 -56,169 -37,40 -88,60 -154,60 -66,0 -118,-20 -155,-60 -36,-40 -55,-96 -55,-168l0 -288 118 0z"/>
  <polygon id="2" class="fil0" points="983,553 983,37 995,37 1306,329 1306,53 1416,53 1416,572 1406,572 1093,280 1093,553 "/>
  <path id="3" class="fil0" d="M1622 303c0,44 13,80 38,109 25,30 57,44 94,44 37,0 69,-14 94,-43 25,-30 38,-66 38,-110 0,-44 -13,-80 -38,-110 -25,-29 -57,-44 -94,-44 -37,0 -69,15 -94,44 -25,30 -38,66 -38,110zm-123 0c0,-37 6,-71 19,-104 13,-32 32,-61 57,-86 23,-25 50,-43 81,-56 31,-13 64,-20 98,-20 34,0 66,7 97,20 32,13 59,32 83,56 25,25 43,53 56,86 12,32 18,67 18,104 0,31 -4,61 -13,88 -8,28 -21,53 -39,76 -24,32 -54,57 -89,75 -36,18 -73,27 -113,27 -34,0 -66,-6 -97,-19 -31,-14 -59,-32 -82,-57 -25,-25 -44,-54 -57,-86 -13,-32 -19,-67 -19,-104z"/>
  <path id="4" class="fil1" d="M2227 144l-20 0 0 139 25 0c31,0 54,-6 69,-19 16,-12 24,-29 24,-52 0,-24 -7,-41 -23,-52 -15,-10 -40,-16 -75,-16zm-135 409l0 -500 128 0c41,0 73,3 96,9 22,5 42,14 60,27 19,13 33,29 43,49 10,20 16,40 16,62 0,32 -8,59 -24,83 -16,23 -40,42 -70,55l153 215 -136 0 -134 -196 -17 0 0 196 -115 0z"/>
  <polygon id="5" class="fil1" points="2541,553 2541,53 2849,53 2849,156 2657,156 2657,247 2821,247 2821,349 2657,349 2657,448 2852,448 2852,553 "/>
  <path id="6" class="fil1" d="M3060 446l27 0c52,0 92,-13 122,-38 29,-25 44,-60 44,-105 0,-44 -15,-79 -44,-105 -30,-25 -70,-38 -122,-38l-27 0 0 286zm-117 107l0 -500 132 0c93,0 167,23 219,67 53,45 80,106 80,183 0,46 -11,88 -32,124 -21,36 -51,65 -92,88 -23,14 -48,23 -75,29 -27,6 -60,9 -100,9l-132 0z"/>
 </g>
</svg>
